<svg xmlns="http://www.w3.org/2000/svg" width="38" height="26.29" viewBox="0 0 38 26.29">
  <defs>
    <linearGradient id="SVGID_1_" gradientUnits="userSpaceOnUse" x1="25.21" y1="21.892" x2="37.942" y2="21.892" gradientTransform="matrix(1 0 0 -1 0 27.508)">
      <stop offset="0" stop-color="#FFE000"/>
      <stop offset="1" stop-color="#FFE600"/>
    </linearGradient>
    <linearGradient id="SVGID_2_" gradientUnits="userSpaceOnUse" x1="11.3522" y1="11.067" x2="32.3801" y2="11.067" gradientTransform="matrix(1 0 0 -1 0 27.508)">
      <stop offset="0" stop-color="#FFE000"/>
      <stop offset="1" stop-color="#FFE600"/>
    </linearGradient>
    <linearGradient id="SVGID_3_" gradientUnits="userSpaceOnUse" x1="0" y1="16.1775" x2="29.572" y2="16.1775" gradientTransform="matrix(1 0 0 -1 0 27.508)">
      <stop offset="0" stop-color="#7FD8FF"/>
      <stop offset="1" stop-color="#ADE6FF"/>
    </linearGradient>
    <linearGradient id="SVGID_4_" gradientUnits="userSpaceOnUse" x1="11.3517" y1="13.7173" x2="29.543" y2="13.7173" gradientTransform="matrix(1 0 0 -1 0 27.508)">
      <stop offset="0" stop-color="#39C3FF"/>
      <stop offset="1" stop-color="#5FCEFF"/>
    </linearGradient>
    <linearGradient id="SVGID_5_" gradientUnits="userSpaceOnUse" x1="25.209" y1="23.062" x2="29.572" y2="23.062" gradientTransform="matrix(1 0 0 -1 0 27.508)">
      <stop offset="0" stop-color="#39C3FF"/>
      <stop offset="1" stop-color="#5FCEFF"/>
    </linearGradient>
  </defs>
  <path fill="url(#SVGID_1_)" d="M37.36 4.9c-.5-.4-.9-.4-.9-.4-.6-2.5-2.8-4.5-5.6-4.5-3.1 0-5.62 2.5-5.62 5.6 0 3.12 2.5 5.63 5.6 5.63 2.8 0 5.12-2.02 5.52-4.7 0 0 .1-.42.7-.72s.9-.2.9-.2-.1-.3-.6-.7z"/>
  <path fill="url(#SVGID_2_)" d="M16.63 22.54s.62 1.5-.7 3.7c2.74-.13 4.45-2.1 4.8-3.6 1.3-.2 2.6-.5 3.9-1.1 5.72-2.2 9.03-7.2 7.42-11.02-1.6-3.8-7.33-5-12.94-2.7-5.6 2.3-8.87 7.3-7.37 11.12.8 1.9 2.65 3.13 4.9 3.6"/>
  <path fill="url(#SVGID_3_)" d="M0 21.04s2.04.5 6.3.5c12.83 0 23.25-6.5 23.25-14.53.15-3.12-2-5.9-2-5.9L0 21.03z"/>
  <path fill="url(#SVGID_4_)" d="M15.67 9.68c-3.52 2.56-5.15 6.25-3.95 9.26.3.8.82 1.46 1.43 1.96 9.1-1.7 15.9-6.88 16.4-13.08 0 0-6.22-3.7-13.88 1.86z"/>
  <path fill="url(#SVGID_5_)" d="M25.33 6.65c1.44.1 2.74.4 4.22 1.16.16-2.5-.55-4.7-2-6.7-1.82 1.34-2.6 3.57-2.22 5.56z"/>
  <path fill="#08A7EC" d="M25.33 6.65c.4 1.9 1.65 3.48 3.46 4.18.4-1 .64-1.9.74-3.02-1.28-.66-2.7-1.04-4.22-1.14z"/>
  <path fill="#FFC000" d="M29.55 7.82c-.1 1.03-.35 2.06-.76 3.02.87.4 2.25.5 3.43.2-.4-1.25-1.3-2.46-2.7-3.22h.02z"/>
</svg>
